<?xml version="1.0" encoding="UTF-8"?>
<!DOCTYPE svg PUBLIC "-//W3C//DTD SVG 1.1//EN" "http://www.w3.org/Graphics/SVG/1.1/DTD/svg11.dtd">
<!-- Creator: CorelDRAW 2018 (64-Bit) -->
<svg xmlns="http://www.w3.org/2000/svg" xml:space="preserve" width="14px" height="14px" version="1.1" style="shape-rendering:geometricPrecision; text-rendering:geometricPrecision; image-rendering:optimizeQuality; fill-rule:evenodd; clip-rule:evenodd"
viewBox="0 0 14 14"
 xmlns:xlink="http://www.w3.org/1999/xlink">
 <defs>
  <style type="text/css">
   <![CDATA[
    .fil0 {fill:#1380F6}
   ]]>
  </style>
 </defs>
 <g id="Слой_x0020_1">
  <metadata id="CorelCorpID_0Corel-Layer"/>
  <path class="fil0" d="M12.8 5.8c0,-3.2 -2.6,-5.8 -5.8,-5.8 -3.2,0 -5.8,2.6 -5.8,5.8 0,3.2 2.59,5.8 5.8,5.8l0 2.4 4.07 -4.06c1.06,-1.06 1.73,-2.52 1.73,-4.14zm-3.2 2.66l-2.6 2.6 0 -1.54c-2.05,0 -3.72,-1.67 -3.72,-3.72 0,-2.05 1.67,-3.72 3.72,-3.72 2.05,0 3.72,1.67 3.72,3.72 0,1.03 -0.41,1.96 -1.09,2.63l-0.03 0.03z"/>
 </g>
</svg>
